<svg viewBox="0 0 403.15384615384613 82" class="looka-1j8o68f"><defs id="SvgjsDefs1214"></defs><g id="SvgjsG1215" featurekey="symbolContainer" transform="matrix(1,0,0,1,0,0)" fill="#7216f4">    <path xmlns="http://www.w3.org/2000/svg" fill-rule="nonzero" d="             M0,0             H87             V82             H0,0             z             M4,4             v74             h79             v-74             z     "></path></g><g id="SvgjsG1216" featurekey="symbolFeature-0" transform="matrix(0.5982873016568052,0,0,0.5982873016568052,14.00871298137913,10.971469799974354)" fill="#7216f4"><g xmlns="http://www.w3.org/2000/svg"><g><path d="M53.935,12.501L17.941,48.496c-0.793,0.793-0.793,2.079,0,2.873l36.017,36.017l-7.553,7.553L7.546,56.079    c-3.395-3.395-3.395-8.899,0-12.294L46.269,5.062L53.935,12.501z"></path><path d="M64.763,68.686l17.296-17.296c0.793-0.793,0.793-2.079,0-2.873L64.712,31.171l7.553-7.553l20.189,20.189    c3.395,3.395,3.395,8.899,0,12.294L72.43,76.126L64.763,68.686z"></path></g></g></g><g id="SvgjsG1217" featurekey="nameFeature-0" transform="matrix(1.3854502889425144,0,0,1.3854502889425144,105.28204195881568,4.817942844882271)" fill="#f9dacf"><path d="M12.48 16.88 c1.28 -0.04 2.44 1.12 2.44 2.4 l0 13.88 c0 1.32 -1.16 2.4 -2.44 2.4 l-6.04 0 l0 -18.68 l6.04 0 z M14.16 33.16 l0 -13.88 c0 -0.88 -0.8 -1.64 -1.68 -1.64 l-5.28 0 l0 17.16 l5.28 0 c0.88 0 1.68 -0.76 1.68 -1.64 z M17.88 13.920000000000002 c1.44 1.44 2.24 3.32 2.24 5.36 l0 13.88 c0 4.16 -3.48 7.6 -7.64 7.6 l-11.24 0 l0 -29.08 l11.24 0 c2.04 0 3.96 0.8 5.4 2.24 z M19.36 33.16 l0 -13.88 c0 -3.76 -3.12 -6.84 -6.88 -6.84 l-10.48 0 l0 27.56 l10.48 0 c3.76 0 6.88 -3.08 6.88 -6.84 z M22.599999999999998 11.68 l5.96 0 l0 29.08 l-5.96 0 l0 -29.08 z M27.8 40 l0 -27.56 l-4.44 0 l0 27.56 l4.44 0 z M42.199999999999996 17.2 c0.64 0 1.24 0.24 1.68 0.68 c0.48 0.48 0.72 1.08 0.72 1.72 l0 13.72 c0 0.64 -0.24 1.24 -0.72 1.68 c-0.44 0.44 -1.04 0.72 -1.68 0.72 l-3.6 0 c-0.64 0 -1.24 -0.28 -1.68 -0.72 c-0.48 -0.44 -0.72 -1.04 -0.72 -1.68 l0 -13.72 c0 -0.64 0.24 -1.24 0.72 -1.72 c0.44 -0.44 1.04 -0.68 1.68 -0.68 l3.6 0 z M43.839999999999996 33.32 l0 -13.72 c0 -0.44 -0.2 -0.84 -0.48 -1.16 c-0.32 -0.32 -0.72 -0.48 -1.16 -0.48 l-3.6 0 c-0.44 0 -0.84 0.16 -1.16 0.48 s-0.48 0.72 -0.48 1.16 l0 13.72 c0 0.44 0.16 0.84 0.48 1.16 c0.32 0.28 0.72 0.48 1.16 0.48 l3.6 0 c0.44 0 0.84 -0.2 1.16 -0.48 c0.28 -0.32 0.48 -0.72 0.48 -1.16 z M47.519999999999996 14.239999999999998 c1.44 1.44 2.24 3.32 2.24 5.36 l0 13.72 c0 2 -0.8 3.88 -2.24 5.32 c-1.4 1.44 -3.32 2.2 -5.32 2.2 l-3.6 0 c-2 0 -3.92 -0.76 -5.32 -2.2 c-1.44 -1.44 -2.24 -3.32 -2.24 -5.32 l0 -13.72 c0 -2.04 0.8 -3.92 2.24 -5.36 c1.4 -1.4 3.32 -2.2 5.32 -2.2 l3.6 0 c2 0 3.92 0.8 5.32 2.2 z M49 33.32 l0 -13.72 c0 -1.84 -0.72 -3.52 -2 -4.8 s-3 -2 -4.8 -2 l-3.6 0 c-1.8 0 -3.52 0.72 -4.8 2 s-2 2.96 -2 4.8 l0 13.72 c0 1.8 0.72 3.52 2 4.8 s3 1.96 4.8 1.96 l3.6 0 c1.8 0 3.52 -0.68 4.8 -1.96 s2 -3 2 -4.8 z M85.16 14.239999999999998 c1.44 1.44 2.24 3.32 2.24 5.36 l0 21.24 l-5.92 0 l0 -21.24 c0 -0.44 -0.16 -0.84 -0.48 -1.16 s-0.72 -0.48 -1.16 -0.48 l-1.4 0 c-0.4 0 -0.84 0.16 -1.12 0.48 c-0.28 0.28 -0.44 0.64 -0.48 1 l0 0.16 l0 21.24 l0 0 l-5.92 0 l0 0 l0 -21.24 l0 -0.16 c-0.04 -0.36 -0.2 -0.72 -0.48 -1 c-0.32 -0.32 -0.72 -0.48 -1.16 -0.48 l-1.36 0 c-0.44 0 -0.84 0.16 -1.16 0.48 s-0.48 0.72 -0.48 1.16 l0 21.24 l-5.92 0 l0 -21.24 c0 -2.04 0.8 -3.92 2.2 -5.36 c1.44 -1.4 3.32 -2.2 5.36 -2.2 l1.36 0 c1.68 0 3.28 0.56 4.6 1.56 c1.32 -1 2.92 -1.56 4.56 -1.56 l1.4 0 c2 0 3.92 0.8 5.32 2.2 z M86.64 40.08 l0 -20.48 c0 -1.84 -0.72 -3.52 -2 -4.8 s-3 -2 -4.8 -2 l-1.4 0 c-1.48 0 -2.92 0.48 -4.12 1.4 l-0.44 0.36 l-0.48 -0.36 c-1.16 -0.92 -2.6 -1.4 -4.12 -1.4 l-1.36 0 c-1.8 0 -3.52 0.72 -4.8 2 s-2 2.96 -2 4.8 l0 20.48 l4.4 0 l0 -20.48 c0 -0.64 0.24 -1.24 0.68 -1.72 c0.48 -0.44 1.08 -0.68 1.72 -0.68 l1.36 0 c0.64 0 1.24 0.24 1.72 0.68 c0.36 0.4 0.64 0.92 0.68 1.48 l0 0.04 l0 0.2 l0 20.48 l4.4 0 l0 -20.48 l0 -0.2 l0 -0.04 c0.04 -0.56 0.28 -1.08 0.68 -1.48 c0.48 -0.44 1.08 -0.68 1.68 -0.68 l1.4 0 c0.64 0 1.24 0.24 1.68 0.68 c0.48 0.48 0.72 1.08 0.72 1.72 l0 20.48 l4.4 0 z M106.52 13.920000000000002 c1.44 1.44 2.24 3.32 2.24 5.36 l0 21.48 l-5.96 0 l0 -3.96 l-6.96 0 l0 3.96 l-5.96 0 l0 -21.48 c0 -2.04 0.8 -3.92 2.24 -5.36 s3.36 -2.24 5.4 -2.24 l3.64 0 c2 0 3.92 0.8 5.36 2.24 z M108 40 l0 -20.72 c0 -1.8 -0.72 -3.52 -2 -4.84 c-1.32 -1.28 -3.04 -2 -4.84 -2 l-3.64 0 c-1.84 0 -3.56 0.72 -4.84 2 c-1.32 1.32 -2.04 3.04 -2.04 4.84 l0 20.72 l4.44 0 l0 -3.96 l8.48 0 l0 3.96 l4.44 0 z M101.16 16.88 c0.64 0 1.24 0.24 1.68 0.72 c0.48 0.44 0.72 1.04 0.72 1.68 l0 12.32 l-8.48 0 l0 -12.32 c0 -0.64 0.28 -1.24 0.72 -1.68 c0.44 -0.48 1.08 -0.72 1.72 -0.72 l3.64 0 z M102.8 30.84 l0 -11.56 c0 -0.44 -0.2 -0.84 -0.48 -1.16 c-0.32 -0.32 -0.72 -0.48 -1.16 -0.48 l-3.64 0 c-0.44 0 -0.88 0.16 -1.16 0.48 c-0.32 0.32 -0.52 0.72 -0.52 1.16 l0 11.56 l6.96 0 z M124.03999999999999 12.04 l5.92 0 l0 21.28 c0 2 -0.8 3.88 -2.24 5.32 c-1.4 1.44 -3.32 2.2 -5.32 2.2 l-3.6 0 c-2 0 -3.92 -0.76 -5.32 -2.2 c-1.44 -1.44 -2.24 -3.32 -2.24 -5.32 l0 -21.28 l5.92 0 l0 21.28 c0 0.44 0.16 0.84 0.48 1.16 c0.32 0.28 0.72 0.48 1.16 0.48 l3.6 0 c0.44 0 0.84 -0.2 1.16 -0.48 c0.32 -0.32 0.48 -0.72 0.48 -1.16 l0 -21.28 z M129.2 33.32 l0 -20.52 l-4.4 0 l0 20.52 c0 0.64 -0.24 1.24 -0.72 1.68 c-0.44 0.44 -1.04 0.72 -1.68 0.72 l-3.6 0 c-0.64 0 -1.24 -0.28 -1.68 -0.72 c-0.48 -0.44 -0.72 -1.04 -0.72 -1.68 l0 -20.52 l-4.4 0 l0 20.52 c0 1.8 0.72 3.52 2 4.8 s3 1.96 4.8 1.96 l3.6 0 c1.8 0 3.52 -0.68 4.8 -1.96 s2 -3 2 -4.8 z M138.32 34.96 l12.8 0 l0 5.88 l-18.72 0 l0 -28.8 l5.92 0 l0 22.92 z M150.35999999999999 40.08 l0 -4.36 l-12.8 0 l0 -22.92 l-4.36 0 l0 27.28 l17.16 0 z M170.23999999999998 13.920000000000002 c1.44 1.44 2.24 3.32 2.24 5.36 l0 21.48 l-5.96 0 l0 -3.96 l-6.96 0 l0 3.96 l-5.96 0 l0 -21.48 c0 -2.04 0.8 -3.92 2.24 -5.36 s3.36 -2.24 5.4 -2.24 l3.64 0 c2 0 3.92 0.8 5.36 2.24 z M171.71999999999997 40 l0 -20.72 c0 -1.8 -0.72 -3.52 -2 -4.84 c-1.32 -1.28 -3.04 -2 -4.84 -2 l-3.64 0 c-1.84 0 -3.56 0.72 -4.84 2 c-1.32 1.32 -2.04 3.04 -2.04 4.84 l0 20.72 l4.44 0 l0 -3.96 l8.48 0 l0 3.96 l4.44 0 z M164.88 16.88 c0.64 0 1.24 0.24 1.68 0.72 c0.48 0.44 0.72 1.04 0.72 1.68 l0 12.32 l-8.48 0 l0 -12.32 c0 -0.64 0.28 -1.24 0.72 -1.68 c0.44 -0.48 1.08 -0.72 1.72 -0.72 l3.64 0 z M166.51999999999998 30.84 l0 -11.56 c0 -0.44 -0.2 -0.84 -0.48 -1.16 c-0.32 -0.32 -0.72 -0.48 -1.16 -0.48 l-3.64 0 c-0.44 0 -0.88 0.16 -1.16 0.48 c-0.32 0.32 -0.52 0.72 -0.52 1.16 l0 11.56 l6.96 0 z M187.71999999999997 12.04 l5.92 0 l0 28.8 l-5.92 0 l0 -8.36 l-6.84 -4.8 l0 13.16 l-5.92 0 l0 -28.8 l5.92 0 l0 8.4 l6.84 4.8 l0 -13.2 z M192.87999999999997 40.08 l0 -27.28 l-4.4 0 l0 13.92 l-8.36 -5.88 l0 -8.04 l-4.4 0 l0 27.28 l4.4 0 l0 -13.88 l8.36 5.88 l0 8 l4.4 0 z M212.75999999999996 13.920000000000002 c1.44 1.44 2.24 3.32 2.24 5.36 l0 21.48 l-5.96 0 l0 -3.96 l-6.96 0 l0 3.96 l-5.96 0 l0 -21.48 c0 -2.04 0.8 -3.92 2.24 -5.36 s3.36 -2.24 5.4 -2.24 l3.64 0 c2 0 3.92 0.8 5.36 2.24 z M214.23999999999995 40 l0 -20.72 c0 -1.8 -0.72 -3.52 -2 -4.84 c-1.32 -1.28 -3.04 -2 -4.84 -2 l-3.64 0 c-1.84 0 -3.56 0.72 -4.84 2 c-1.32 1.32 -2.04 3.04 -2.04 4.84 l0 20.72 l4.44 0 l0 -3.96 l8.48 0 l0 3.96 l4.44 0 z M207.39999999999998 16.88 c0.64 0 1.24 0.24 1.68 0.72 c0.48 0.44 0.72 1.04 0.72 1.68 l0 12.32 l-8.48 0 l0 -12.32 c0 -0.64 0.28 -1.24 0.72 -1.68 c0.44 -0.48 1.08 -0.72 1.72 -0.72 l3.64 0 z M209.03999999999996 30.84 l0 -11.56 c0 -0.44 -0.2 -0.84 -0.48 -1.16 c-0.32 -0.32 -0.72 -0.48 -1.16 -0.48 l-3.64 0 c-0.44 0 -0.88 0.16 -1.16 0.48 c-0.32 0.32 -0.52 0.72 -0.52 1.16 l0 11.56 l6.96 0 z"></path></g></svg>